<svg xmlns="http://www.w3.org/2000/svg" viewBox="0 0 96 96"><path d="M48 15.5c-12 0-21.7 9.7-21.7 21.7 0 3.8 1 7.4 2.8 10.6l.9 1.5 18 31.2 17.9-31.2c.3-.4.5-.8.8-1.3l.2-.3c1.8-3.1 2.8-6.7 2.8-10.6 0-11.9-9.7-21.6-21.7-21.6zm0 10.8c6 0 10.8 4.9 10.8 10.8C58.8 43.1 54 48 48 48c-6 0-10.8-4.9-10.8-10.8 0-6 4.8-10.9 10.8-10.9z" fill="#e74c3c"/><path d="M48 23.6c-7.5 0-13.5 6.1-13.5 13.5 0 7.5 6.1 13.5 13.5 13.5 7.5 0 13.5-6.1 13.5-13.5s-6-13.5-13.5-13.5zm0 5.4c4.5 0 8.1 3.6 8.1 8.1s-3.6 8.1-8.1 8.1-8.1-3.6-8.1-8.1S43.5 29 48 29z" fill="#c0392b"/></svg>